P3
# Created by GIMP version 2.10.28 PNM plug-in
44 32
255
126
141
138
126
141
138
126
141
138
126
141
138
126
141
138
126
141
138
126
141
138
126
141
138
126
141
138
121
136
133
97
109
106
98
110
108
99
111
108
99
111
108
99
111
109
99
111
109
99
111
109
99
111
109
99
111
109
99
111
109
99
111
109
99
111
109
99
111
109
99
111
109
99
111
109
99
111
109
100
112
110
114
127
125
126
141
138
126
141
138
126
141
138
126
141
138
126
141
138
126
141
138
126
141
138
126
141
138
126
141
138
126
141
138
126
141
138
126
141
138
126
141
138
126
141
138
126
141
138
126
141
138
126
141
138
126
141
138
126
141
138
126
141
138
126
141
138
126
141
138
126
141
138
126
141
138
126
141
138
114
127
125
0
0
0
0
0
0
0
0
0
0
0
0
0
0
0
0
0
0
0
0
0
0
0
0
0
0
0
0
0
0
0
0
0
0
0
0
0
0
0
0
0
0
0
0
0
0
0
0
0
0
0
82
92
90
126
141
138
126
141
138
126
141
138
126
141
138
126
141
138
126
141
138
126
141
138
126
141
138
126
141
138
126
141
138
126
141
138
126
141
138
126
141
138
126
141
138
126
141
138
126
141
138
126
141
138
126
141
138
126
141
138
126
141
138
126
141
138
126
141
138
126
141
138
126
141
138
126
141
138
118
132
129
74
84
82
67
75
74
63
71
69
60
68
66
57
65
63
11
13
13
0
0
0
0
0
0
0
0
0
0
0
0
0
0
0
0
0
0
15
18
18
57
65
63
59
67
66
62
70
69
67
75
74
101
114
111
126
141
138
126
141
138
126
141
138
126
141
138
126
141
138
126
141
138
126
141
138
126
141
138
126
141
138
126
141
138
126
141
138
126
141
138
126
141
138
126
141
138
126
141
138
126
141
138
126
141
138
126
141
138
126
141
138
126
141
138
126
141
138
126
141
138
126
141
138
126
141
138
126
141
138
126
141
138
126
141
138
126
141
138
126
141
138
126
141
138
126
141
138
35
41
40
0
0
0
0
0
0
0
0
0
0
0
0
0
0
0
0
0
0
56
64
62
126
141
138
126
141
138
126
141
138
126
141
138
126
141
138
126
141
138
126
141
138
126
141
138
126
141
138
126
141
138
126
141
138
126
141
138
126
141
138
126
141
138
126
141
138
126
141
138
126
141
138
126
141
138
126
141
138
126
141
138
126
141
138
126
141
138
126
141
138
126
141
138
126
141
138
126
141
138
126
141
138
126
141
138
126
141
138
117
131
129
70
79
77
59
67
66
59
67
65
58
66
64
58
65
64
56
63
62
0
0
0
0
0
0
0
0
0
0
0
0
0
0
0
0
0
0
0
0
0
5
7
7
55
63
61
58
65
64
59
67
65
59
67
66
65
74
72
103
116
113
126
141
138
126
141
138
126
141
138
126
141
138
126
141
138
126
141
138
126
141
138
126
141
138
126
141
138
126
141
138
126
141
138
126
141
138
126
141
138
126
141
138
126
141
138
126
141
138
126
141
138
126
141
138
126
141
138
126
141
138
126
141
138
126
141
138
126
141
138
91
102
100
0
0
0
0
0
0
0
0
0
0
0
0
0
0
0
0
0
0
0
0
0
0
0
0
0
0
0
0
0
0
0
0
0
0
0
0
0
0
0
0
0
0
0
0
0
0
0
0
0
0
0
0
0
0
0
0
0
52
59
58
126
141
138
126
141
138
126
141
138
126
141
138
126
141
138
126
141
138
126
141
138
126
141
138
126
141
138
126
141
138
126
141
138
126
141
138
126
141
138
126
141
138
126
141
138
126
141
138
126
141
138
126
141
138
126
141
138
126
141
138
126
141
138
126
141
138
126
141
138
77
87
85
0
0
0
0
0
0
0
0
0
0
0
0
0
0
0
0
0
0
3
3
3
3
3
3
3
3
3
3
3
3
3
3
3
3
3
3
3
3
3
3
3
3
3
3
3
3
3
3
0
0
0
0
0
0
0
0
0
22
26
25
124
139
136
126
141
138
126
141
138
126
141
138
126
141
138
126
141
138
126
141
138
126
141
138
126
141
138
126
141
138
126
141
138
126
141
138
126
141
138
126
141
138
126
141
138
126
141
138
126
141
138
126
141
138
126
141
138
80
90
88
26
31
30
15
18
18
8
10
10
0
0
0
0
0
0
0
0
0
119
133
131
126
141
138
126
141
138
126
141
138
126
141
138
126
141
138
126
141
138
126
141
138
126
141
138
126
141
138
126
141
138
126
141
138
126
141
138
126
141
138
126
141
138
68
77
75
0
0
0
0
0
0
0
0
0
11
13
13
75
85
83
126
141
138
126
141
138
126
141
138
126
141
138
85
96
93
21
24
24
19
23
22
28
32
31
56
63
62
116
130
127
126
141
138
126
141
138
94
106
104
83
93
91
96
108
106
126
141
138
5
7
7
0
0
0
0
0
0
0
0
0
0
0
0
0
0
0
19
23
22
126
141
138
126
141
138
126
141
138
126
141
138
126
141
138
126
141
138
126
141
138
126
141
138
126
141
138
126
141
138
126
141
138
126
141
138
126
141
138
126
141
138
126
141
138
83
93
91
0
0
0
0
0
0
0
0
0
0
0
0
0
0
0
113
127
124
126
141
138
126
141
138
117
131
128
0
0
0
0
0
0
0
0
0
0
0
0
0
0
0
90
101
99
126
141
138
126
141
138
57
65
63
0
0
0
58
66
64
126
141
138
3
3
3
0
0
0
25
29
29
57
65
63
58
66
64
67
76
74
102
114
111
126
141
138
126
141
138
126
141
138
126
141
138
126
141
138
126
141
138
126
141
138
126
141
138
126
141
138
126
141
138
126
141
138
126
141
138
126
141
138
126
141
138
126
141
138
118
132
129
77
86
84
62
70
69
50
57
55
0
0
0
0
0
0
89
100
98
126
141
138
126
141
138
91
102
100
0
0
0
0
0
0
48
55
53
0
0
0
0
0
0
69
78
76
126
141
138
126
141
138
55
63
61
0
0
0
58
66
64
126
141
138
0
0
0
0
0
0
81
91
89
126
141
138
126
141
138
126
141
138
126
141
138
126
141
138
126
141
138
126
141
138
126
141
138
126
141
138
126
141
138
126
141
138
126
141
138
126
141
138
126
141
138
126
141
138
126
141
138
126
141
138
126
141
138
126
141
138
126
141
138
126
141
138
126
141
138
125
140
137
32
37
36
0
0
0
55
62
60
126
141
138
126
141
138
55
62
60
0
0
0
26
31
30
124
139
136
46
53
52
0
0
0
49
56
55
126
141
138
126
141
138
54
61
60
0
0
0
58
65
64
126
141
138
0
0
0
0
0
0
82
92
90
126
141
138
126
141
138
126
141
138
126
141
138
126
141
138
126
141
138
126
141
138
126
141
138
126
141
138
126
141
138
126
141
138
126
141
138
126
141
138
126
141
138
126
141
138
126
141
138
126
141
138
126
141
138
126
141
138
126
141
138
126
141
138
126
141
138
126
141
138
71
81
79
0
0
0
0
0
0
120
134
132
118
132
129
0
0
0
0
0
0
75
85
83
126
141
138
62
70
69
0
0
0
5
7
7
126
141
138
126
141
138
54
61
60
0
0
0
57
65
63
126
141
138
0
0
0
0
0
0
82
92
90
126
141
138
126
141
138
126
141
138
126
141
138
126
141
138
126
141
138
126
141
138
126
141
138
126
141
138
126
141
138
126
141
138
126
141
138
126
141
138
126
141
138
126
141
138
126
141
138
126
141
138
126
141
138
126
141
138
126
141
138
126
141
138
126
141
138
126
141
138
99
112
109
0
0
0
0
0
0
59
67
66
56
64
62
0
0
0
0
0
0
105
118
115
126
141
138
79
89
87
0
0
0
0
0
0
122
136
133
126
141
138
55
62
60
0
0
0
56
63
62
126
141
138
0
0
0
0
0
0
82
92
90
126
141
138
126
141
138
126
141
138
126
141
138
126
141
138
126
141
138
126
141
138
126
141
138
126
141
138
126
141
138
126
141
138
126
141
138
126
141
138
126
141
138
126
141
138
126
141
138
126
141
138
126
141
138
126
141
138
126
141
138
126
141
138
126
141
138
126
141
138
120
135
132
0
0
0
0
0
0
0
0
0
0
0
0
0
0
0
29
34
33
124
139
136
126
141
138
83
94
92
0
0
0
0
0
0
114
128
125
126
141
138
55
62
60
0
0
0
35
41
40
95
106
104
0
0
0
0
0
0
82
92
90
126
141
138
126
141
138
126
141
138
126
141
138
126
141
138
126
141
138
126
141
138
126
141
138
126
141
138
126
141
138
126
141
138
126
141
138
126
141
138
126
141
138
126
141
138
126
141
138
126
141
138
126
141
138
126
141
138
126
141
138
126
141
138
126
141
138
126
141
138
126
141
138
81
91
89
17
21
20
0
0
0
0
0
0
24
28
27
93
105
103
126
141
138
126
141
138
95
107
105
0
0
0
0
0
0
114
127
125
126
141
138
55
63
61
0
0
0
0
0
0
0
0
0
0
0
0
0
0
0
82
92
90
126
141
138
126
141
138
126
141
138
126
141
138
126
141
138
126
141
138
126
141
138
126
141
138
126
141
138
126
141
138
126
141
138
126
141
138
126
141
138
126
141
138
126
141
138
126
141
138
126
141
138
126
141
138
126
141
138
126
141
138
126
141
138
126
141
138
126
141
138
126
141
138
126
141
138
126
141
138
126
141
138
126
141
138
126
141
138
126
141
138
126
141
138
126
141
138
99
111
109
0
0
0
0
0
0
114
127
125
126
141
138
56
63
62
0
0
0
0
0
0
0
0
0
0
0
0
0
0
0
82
92
90
126
141
138
126
141
138
126
141
138
126
141
138
126
141
138
126
141
138
126
141
138
126
141
138
126
141
138
126
141
138
126
141
138
126
141
138
126
141
138
126
141
138
126
141
138
126
141
138
126
141
138
126
141
138
126
141
138
126
141
138
126
141
138
126
141
138
126
141
138
126
141
138
126
141
138
126
141
138
126
141
138
126
141
138
126
141
138
126
141
138
126
141
138
126
141
138
100
112
110
0
0
0
0
0
0
114
128
125
126
141
138
56
64
62
0
0
0
38
44
43
104
117
114
0
0
0
0
0
0
82
92
90
126
141
138
126
141
138
126
141
138
126
141
138
126
141
138
126
141
138
126
141
138
126
141
138
126
141
138
126
141
138
126
141
138
126
141
138
126
141
138
126
141
138
126
141
138
126
141
138
126
141
138
126
141
138
126
141
138
126
141
138
126
141
138
126
141
138
126
141
138
126
141
138
126
141
138
126
141
138
126
141
138
126
141
138
126
141
138
126
141
138
126
141
138
126
141
138
100
112
110
0
0
0
0
0
0
114
128
125
126
141
138
57
65
63
0
0
0
57
65
63
126
140
138
0
0
0
0
0
0
82
92
90
126
141
138
126
141
138
126
141
138
126
141
138
126
141
138
126
141
138
126
141
138
126
141
138
126
141
138
126
141
138
126
141
138
126
141
138
126
141
138
126
141
138
126
141
138
126
141
138
126
141
138
126
141
138
126
141
138
126
141
138
126
141
138
126
141
138
126
141
138
126
141
138
126
141
138
126
141
138
126
141
138
126
141
138
126
141
138
126
141
138
126
141
138
126
141
138
100
112
110
0
0
0
0
0
0
114
127
125
126
141
138
58
65
64
0
0
0
58
65
64
126
141
138
0
0
0
0
0
0
82
92
90
126
141
138
126
141
138
126
141
138
126
141
138
126
141
138
126
141
138
126
141
138
126
141
138
126
141
138
126
141
138
126
141
138
126
141
138
126
141
138
126
141
138
126
141
138
126
141
138
126
141
138
126
141
138
126
141
138
126
141
138
126
141
138
126
141
138
126
141
138
126
141
138
126
141
138
126
141
138
126
141
138
126
141
138
126
141
138
126
141
138
126
141
138
126
141
138
100
112
110
0
0
0
0
0
0
114
127
125
126
141
138
58
66
64
0
0
0
58
65
64
126
141
138
0
0
0
0
0
0
82
92
90
126
141
138
126
141
138
126
141
138
126
141
138
126
141
138
126
141
138
126
141
138
126
141
138
126
141
138
126
141
138
126
141
138
126
141
138
126
141
138
126
141
138
126
141
138
126
141
138
126
141
138
126
141
138
126
141
138
126
141
138
126
141
138
126
141
138
126
141
138
126
141
138
126
141
138
126
141
138
126
141
138
126
141
138
126
141
138
126
141
138
126
141
138
126
141
138
100
112
110
0
0
0
0
0
0
114
128
125
126
141
138
58
66
64
0
0
0
58
66
64
126
141
138
0
0
0
0
0
0
82
92
90
126
141
138
126
141
138
126
141
138
126
141
138
126
141
138
126
141
138
126
141
138
126
141
138
126
141
138
126
141
138
126
141
138
126
141
138
126
141
138
126
141
138
126
141
138
126
141
138
126
141
138
126
141
138
126
141
138
126
141
138
126
141
138
126
141
138
126
141
138
126
141
138
126
141
138
126
141
138
126
141
138
126
141
138
126
141
138
126
141
138
126
141
138
126
141
138
99
111
109
0
0
0
0
0
0
114
128
125
126
141
138
58
66
64
0
0
0
58
66
64
126
141
138
0
0
0
0
0
0
8
10
10
50
57
55
56
64
62
60
68
66
91
102
100
126
141
138
126
141
138
126
141
138
126
141
138
126
141
138
126
141
138
126
141
138
126
141
138
126
141
138
126
141
138
126
141
138
126
141
138
126
141
138
126
141
138
126
141
138
126
141
138
126
141
138
126
141
138
126
141
138
126
141
138
102
114
112
59
67
65
58
66
64
58
66
64
62
70
69
107
119
117
126
141
138
126
141
138
98
110
108
0
0
0
0
0
0
114
127
125
126
141
138
105
117
115
94
106
103
102
114
111
126
141
138
0
0
0
0
0
0
0
0
0
0
0
0
0
0
0
0
0
0
0
0
0
96
107
105
126
141
138
126
141
138
126
141
138
126
141
138
126
141
138
126
141
138
126
141
138
126
141
138
126
141
138
126
141
138
126
141
138
126
141
138
126
141
138
126
141
138
126
141
138
126
141
138
126
141
138
126
141
138
123
138
135
24
28
27
0
0
0
0
0
0
0
0
0
0
0
0
36
42
41
125
140
137
126
141
138
94
106
104
0
0
0
0
0
0
114
127
125
126
141
138
126
141
138
126
141
138
126
141
138
126
141
138
86
97
95
56
64
62
54
61
60
43
50
48
29
34
33
3
3
3
0
0
0
13
16
16
112
125
123
126
141
138
126
141
138
126
141
138
126
141
138
126
141
138
126
141
138
126
141
138
126
141
138
126
141
138
126
141
138
126
141
138
126
141
138
126
141
138
126
141
138
126
141
138
126
141
138
126
141
138
106
118
116
0
0
0
0
0
0
15
18
18
21
24
24
0
0
0
0
0
0
108
121
118
126
141
138
83
94
92
0
0
0
0
0
0
115
129
126
126
141
138
126
141
138
126
141
138
126
141
138
126
141
138
126
141
138
126
141
138
126
141
138
126
141
138
126
141
138
102
115
112
0
0
0
0
0
0
43
50
48
122
136
133
126
141
138
126
141
138
126
141
138
126
141
138
126
141
138
126
141
138
126
141
138
126
141
138
126
141
138
126
141
138
126
141
138
126
141
138
126
141
138
126
141
138
126
141
138
126
141
138
82
93
91
0
0
0
0
0
0
115
129
126
115
128
126
0
0
0
0
0
0
83
93
91
126
141
138
75
84
82
0
0
0
0
0
0
124
139
136
126
141
138
126
141
138
126
141
138
126
141
138
126
141
138
126
141
138
126
141
138
126
141
138
126
141
138
126
141
138
126
141
138
79
89
87
0
0
0
0
0
0
70
79
77
126
141
138
126
141
138
126
141
138
126
141
138
126
141
138
126
141
138
126
141
138
126
141
138
126
141
138
126
141
138
126
141
138
126
141
138
126
141
138
126
141
138
126
141
138
126
141
138
45
51
50
0
0
0
43
49
47
126
141
138
126
141
138
45
51
50
0
0
0
41
47
46
126
141
138
56
64
62
0
0
0
21
24
24
126
141
138
126
141
138
126
141
138
126
141
138
126
141
138
126
141
138
126
141
138
126
141
138
126
141
138
126
141
138
126
141
138
126
141
138
124
138
135
51
58
56
0
0
0
0
0
0
67
76
74
82
93
91
83
93
91
83
93
91
83
93
91
83
93
91
83
93
91
83
93
91
83
93
91
83
93
91
82
93
91
82
93
91
82
92
90
82
92
90
81
91
89
74
84
82
0
0
0
0
0
0
80
90
88
126
141
138
126
141
138
86
97
95
0
0
0
0
0
0
76
85
84
13
16
16
0
0
0
57
65
63
126
141
138
126
141
138
126
141
138
126
141
138
126
141
138
126
141
138
126
141
138
126
141
138
126
141
138
126
141
138
126
141
138
126
141
138
126
141
138
116
130
127
22
26
25
0
0
0
0
0
0
0
0
0
0
0
0
0
0
0
0
0
0
0
0
0
0
0
0
0
0
0
0
0
0
0
0
0
0
0
0
0
0
0
0
0
0
0
0
0
0
0
0
0
0
0
0
0
0
0
0
0
107
119
117
126
141
138
126
141
138
111
125
122
0
0
0
0
0
0
0
0
0
0
0
0
0
0
0
80
90
88
126
141
138
126
141
138
126
141
138
126
141
138
126
141
138
126
141
138
126
141
138
126
141
138
126
141
138
126
141
138
126
141
138
126
141
138
126
141
138
126
141
138
104
117
114
8
10
10
0
0
0
0
0
0
0
0
0
0
0
0
0
0
0
0
0
0
0
0
0
0
0
0
0
0
0
0
0
0
0
0
0
0
0
0
0
0
0
0
0
0
0
0
0
0
0
0
0
0
0
49
56
55
125
140
137
126
141
138
126
141
138
126
141
138
59
67
66
0
0
0
0
0
0
0
0
0
3
3
3
108
121
118
126
141
138
126
141
138
126
141
138
126
141
138
126
141
138
126
141
138
126
141
138
126
141
138
126
141
138
126
141
138
126
141
138
126
141
138
126
141
138
126
141
138
126
141
138
121
135
132
116
130
127
115
129
126
115
129
126
115
129
126
115
129
126
115
129
126
115
129
126
115
129
126
115
129
126
116
130
127
116
130
127
117
131
128
117
131
128
118
132
129
119
133
131
120
135
132
123
138
135
126
141
138
126
141
138
126
141
138
126
141
138
126
141
138
125
140
137
115
129
126
114
127
125
114
127
125
120
135
132
126
141
138
126
141
138
126
141
138
126
141
138
126
141
138
126
141
138
126
141
138
126
141
138
126
141
138
126
141
138
126
141
138
126
141
138
126
141
138
126
141
138
126
141
138
126
141
138
126
141
138
126
141
138
126
141
138
126
141
138
126
141
138
126
141
138
126
141
138
126
141
138
126
141
138
126
141
138
126
141
138
126
141
138
126
141
138
126
141
138
126
141
138
126
141
138
126
141
138
126
141
138
126
141
138
126
141
138
126
141
138
126
141
138
126
141
138
126
141
138
126
141
138
126
141
138
126
141
138
126
141
138
126
141
138
126
141
138
126
141
138
