<?xml version="1.0" standalone="no"?>
<!DOCTYPE svg PUBLIC "-//W3C//DTD SVG 20010904//EN"
 "http://www.w3.org/TR/2001/REC-SVG-20010904/DTD/svg10.dtd">
<svg version="1.0" xmlns="http://www.w3.org/2000/svg"
 width="1200.000000pt" height="1200.000000pt" viewBox="0 0 1200.000000 1200.000000"
 preserveAspectRatio="xMidYMid meet">
<metadata>
Created by potrace 1.16, written by Peter Selinger 2001-2019
</metadata>
<g transform="translate(0.000000,1200.000000) scale(0.100000,-0.100000)"
fill="#000000" stroke="none">
<path d="M6008 9184 c-10 -3 -20 -20 -24 -42 -7 -34 -1 -234 14 -475 8 -124
17 -140 80 -130 66 10 65 7 58 218 -9 269 -17 401 -26 415 -8 13 -75 22 -102
14z"/>
<path d="M6505 9171 c-60 -11 -114 -43 -172 -101 -60 -60 -73 -101 -73 -236 0
-65 5 -94 20 -124 28 -55 77 -108 129 -142 42 -26 51 -28 157 -28 62 0 124 4
138 10 34 12 46 61 46 182 l0 96 -45 17 c-80 31 -105 11 -105 -88 0 -65 -13
-87 -51 -87 -41 0 -102 35 -122 69 -22 37 -31 100 -22 157 5 36 16 55 51 90
l43 44 93 0 c54 0 103 6 117 13 29 14 46 64 29 85 -33 39 -144 60 -233 43z"/>
<path d="M5553 9150 c-39 -16 -40 -39 -14 -360 21 -266 20 -259 47 -277 22
-14 39 -14 151 -4 70 7 135 17 145 22 21 11 26 87 6 107 -7 7 -41 12 -83 12
-100 0 -102 4 -120 176 -29 273 -31 284 -56 310 -24 25 -40 28 -76 14z"/>
<path d="M6956 9137 c-10 -8 -22 -34 -26 -58 -17 -98 -52 -318 -61 -374 -15
-100 -12 -192 7 -199 21 -8 67 -7 80 2 21 13 43 68 50 123 12 97 15 99 81 93
105 -9 102 -4 90 -143 -8 -86 -7 -95 10 -113 24 -23 79 -27 99 -6 18 17 94
463 94 550 0 50 -3 60 -25 74 -38 25 -93 12 -101 -24 -3 -15 -10 -43 -15 -62
-5 -19 -9 -49 -9 -65 0 -40 -25 -75 -55 -75 -13 0 -47 5 -75 12 l-52 12 6 58
c3 32 9 84 12 116 l7 59 -42 16 c-50 20 -52 21 -75 4z"/>
<path d="M4905 9048 c-44 -10 -90 -21 -102 -24 -39 -8 -39 -57 2 -236 21 -90
41 -181 46 -203 5 -22 15 -69 23 -105 15 -67 40 -100 77 -100 10 0 44 7 76 16
32 9 80 20 107 25 79 14 103 53 76 125 -10 25 -13 26 -58 21 -26 -4 -66 -10
-90 -15 -38 -8 -44 -7 -57 12 -18 25 -19 70 -2 84 6 5 30 15 52 21 79 21 99
50 73 105 -14 32 -28 36 -105 33 -66 -2 -77 3 -86 44 -9 37 11 58 65 68 71 13
98 34 98 77 0 59 -14 74 -68 73 -26 -1 -83 -10 -127 -21z"/>
<path d="M7516 9031 c-12 -13 -16 -32 -14 -62 3 -41 6 -44 44 -59 67 -24 76
-36 69 -89 -4 -25 -21 -107 -40 -181 -58 -236 -58 -252 7 -272 65 -19 66 -18
147 292 23 85 45 158 51 164 5 5 39 10 76 11 71 1 94 16 94 61 0 54 -15 61
-269 124 -143 35 -143 35 -165 11z"/>
<path d="M4343 8890 c-40 -24 -42 -45 -9 -137 14 -37 39 -119 56 -181 48 -175
87 -286 103 -296 24 -16 232 35 283 69 29 18 32 69 8 103 -18 27 -30 27 -117
5 -84 -22 -81 -25 -127 119 -18 57 -41 128 -51 158 -10 30 -23 74 -29 98 -12
48 -41 82 -67 82 -10 0 -33 -9 -50 -20z"/>
<path d="M3955 8753 c-82 -30 -161 -66 -174 -78 -22 -21 -23 -26 -12 -54 7
-16 21 -37 32 -47 17 -16 24 -16 75 -4 39 10 61 11 72 3 10 -5 54 -101 99
-213 45 -112 89 -210 97 -218 13 -14 20 -13 57 3 73 33 73 31 18 167 -27 68
-53 132 -58 143 -81 185 -80 201 6 230 33 11 38 17 41 49 8 94 -41 98 -253 19z"/>
<path d="M8363 8699 c-59 -34 -123 -105 -148 -164 -27 -64 -31 -164 -10 -242
14 -53 27 -75 64 -113 89 -91 213 -134 319 -111 66 15 115 45 173 108 64 70
82 120 82 234 -1 120 -12 154 -66 206 -82 78 -173 113 -291 113 -61 0 -79 -5
-123 -31z m255 -143 c60 -38 72 -64 72 -155 0 -78 -1 -80 -38 -119 -77 -80
-136 -90 -226 -37 -59 35 -86 84 -86 159 0 48 4 60 40 104 51 65 63 71 138 72
49 0 71 -5 100 -24z"/>
<path d="M3519 8562 c-245 -124 -248 -126 -209 -190 27 -45 44 -48 99 -22 27
12 57 19 67 16 11 -3 36 -41 60 -88 149 -302 158 -317 186 -329 23 -9 33 -8
60 8 18 10 34 28 36 40 2 12 -40 108 -92 213 -53 106 -96 203 -96 216 0 17 13
34 43 55 52 38 60 52 52 89 -8 36 -30 60 -54 60 -10 0 -78 -31 -152 -68z"/>
<path d="M9068 8438 c-13 -18 -34 -52 -45 -74 -12 -23 -63 -115 -114 -205 -50
-90 -98 -179 -106 -197 -18 -43 -4 -68 47 -83 50 -15 64 -4 110 86 18 36 44
72 58 81 24 16 28 15 69 -5 24 -11 52 -21 62 -21 27 0 61 42 61 76 0 23 -8 34
-39 54 -59 36 -76 83 -43 113 27 24 52 21 118 -14 l59 -30 27 30 c32 36 36 80
10 104 -28 25 -209 117 -230 117 -11 0 -31 -15 -44 -32z"/>
<path d="M3128 8354 c-53 -28 -54 -47 -8 -137 23 -45 57 -107 75 -137 63 -106
74 -126 130 -222 46 -80 60 -98 80 -98 28 0 85 51 85 77 0 10 -16 44 -35 76
-19 32 -35 60 -35 62 0 1 -40 71 -90 155 -49 84 -90 154 -90 157 0 12 -63 83
-73 83 -7 -1 -24 -7 -39 -16z"/>
<path d="M2717 8095 c-20 -14 -37 -30 -37 -35 0 -15 15 -40 110 -185 47 -71
87 -134 90 -140 37 -74 139 -205 159 -205 17 0 190 113 229 150 29 27 29 70
-1 98 -31 29 -43 28 -109 -11 -72 -44 -83 -48 -101 -34 -8 7 -58 77 -111 156
-105 155 -164 231 -181 231 -6 0 -27 -11 -48 -25z"/>
<path d="M9724 8072 c-30 -24 -103 -113 -220 -272 -137 -184 -141 -192 -124
-226 18 -33 53 -50 79 -38 11 5 56 55 101 112 45 57 87 101 93 99 6 -2 18 -35
25 -73 18 -95 35 -108 126 -99 66 6 85 0 86 -26 0 -4 -34 -49 -75 -100 -42
-52 -78 -104 -81 -117 -7 -26 8 -47 46 -67 23 -12 30 -12 48 1 28 19 158 180
254 314 87 122 98 141 98 171 0 20 -3 21 -52 15 -67 -8 -179 -25 -238 -36 -58
-11 -68 -1 -80 81 -4 35 -14 105 -21 154 -12 89 -23 125 -37 125 -4 0 -17 -8
-28 -18z"/>
<path d="M2234 7718 c-68 -45 -114 -117 -114 -176 0 -55 32 -123 78 -163 29
-25 40 -29 95 -29 34 0 84 7 111 15 73 22 103 19 122 -10 16 -25 16 -27 -13
-63 -16 -20 -52 -48 -79 -61 -75 -36 -82 -56 -32 -102 18 -16 43 -29 56 -29
68 0 196 106 221 183 23 68 -18 175 -80 207 -47 26 -121 30 -201 13 -93 -20
-128 -11 -128 33 0 20 15 41 56 79 62 57 63 71 8 114 -35 28 -43 27 -100 -11z"/>
<path d="M10324 7602 c-22 -18 -258 -280 -337 -374 -37 -43 -48 -63 -45 -84 4
-33 48 -69 74 -60 33 10 414 432 414 458 0 12 -65 78 -76 78 -5 0 -18 -8 -30
-18z"/>
<path d="M4702 7518 c-9 -12 -12 -51 -10 -144 l3 -129 355 -10 355 -10 1 -75
c1 -41 -3 -83 -7 -92 -8 -15 -45 -17 -381 -20 -330 -3 -378 -6 -414 -21 -64
-28 -85 -75 -94 -210 -10 -152 2 -145 -246 -146 -109 -1 -215 -6 -238 -12 -51
-14 -93 -52 -106 -98 -6 -21 -10 -207 -10 -447 0 -339 -2 -414 -14 -430 -12
-15 -26 -19 -71 -18 -36 1 -61 7 -66 15 -5 8 -9 188 -9 401 0 260 -3 389 -11
393 -19 12 -307 17 -329 5 -20 -11 -20 -14 -18 -1003 l3 -992 160 -6 c88 -3
168 -2 178 3 16 8 17 37 17 398 0 377 1 391 20 410 38 38 124 18 134 -32 3
-17 6 -217 6 -444 l0 -414 41 -45 c26 -28 53 -47 73 -50 17 -4 157 -9 311 -13
l279 -7 91 -121 c49 -66 148 -197 218 -291 151 -203 214 -270 260 -278 17 -3
563 -5 1212 -3 1092 3 1182 4 1211 20 52 28 81 73 110 166 15 48 30 96 35 107
4 11 19 65 34 120 66 247 71 260 96 272 13 7 50 13 81 13 75 0 88 -15 123
-138 37 -133 132 -420 153 -460 9 -18 31 -46 48 -63 27 -26 39 -30 130 -39
209 -20 425 -8 471 26 49 36 80 93 92 168 7 39 17 98 22 131 6 33 13 69 16 80
3 11 9 65 13 120 5 55 14 145 22 200 19 144 19 1439 -1 1575 -7 52 -16 136
-20 185 -15 179 -61 432 -91 502 -14 31 -29 47 -62 64 -39 20 -61 22 -254 27
-267 6 -289 3 -341 -49 -23 -22 -46 -52 -51 -67 -41 -104 -64 -172 -97 -277
-90 -293 -93 -300 -151 -311 -52 -10 -102 4 -121 32 -9 14 -31 80 -49 147 -80
296 -132 441 -172 480 -41 39 -69 46 -217 53 -78 4 -139 12 -144 18 -4 6 -11
62 -14 125 -8 136 -25 172 -95 204 -42 18 -74 20 -374 25 -226 3 -331 8 -337
16 -15 18 -16 157 -2 165 7 4 145 11 309 14 245 6 299 9 311 22 12 12 15 40
15 126 0 97 -3 113 -19 125 -16 12 -177 14 -935 14 -504 0 -1031 3 -1171 7
-222 5 -256 4 -267 -9z m2196 -861 c14 -16 20 -49 28 -156 8 -100 28 -137 97
-173 36 -19 62 -23 187 -26 80 -2 153 -8 162 -13 23 -12 58 -81 58 -112 0 -13
9 -50 19 -83 10 -32 38 -124 61 -204 24 -80 53 -168 65 -196 35 -80 60 -87
332 -92 320 -6 375 9 417 113 27 63 102 281 156 450 17 55 37 106 45 113 18
19 82 19 100 1 9 -9 19 -47 24 -90 33 -282 51 -481 60 -659 18 -358 2 -1097
-28 -1266 -5 -33 -15 -108 -22 -169 -14 -134 -25 -155 -79 -155 -59 0 -65 9
-115 175 -133 442 -159 491 -265 514 -28 6 -151 11 -272 11 -205 0 -225 -2
-265 -21 -24 -12 -54 -35 -68 -53 -26 -34 -70 -159 -115 -331 -64 -240 -71
-259 -102 -277 -18 -10 -211 -14 -968 -16 -520 -2 -979 0 -1019 3 -91 8 -77
-4 -279 263 -141 187 -208 272 -275 356 -51 62 -75 68 -332 79 -145 6 -233 14
-237 21 -4 6 -8 369 -8 806 0 606 3 799 12 808 8 8 50 12 122 12 163 0 327 16
367 35 68 32 92 90 104 247 7 78 9 87 29 91 11 2 465 5 1007 6 791 1 989 -2
997 -12z"/>
<path d="M1887 7392 c-15 -15 -27 -34 -27 -41 0 -29 410 -451 437 -451 20 0
83 64 83 83 0 16 -254 279 -367 381 -35 31 -71 56 -81 56 -10 0 -30 -13 -45
-28z"/>
<path d="M10524 7370 c-64 -52 -357 -331 -383 -367 -23 -31 -23 -33 -7 -58 9
-14 28 -31 41 -37 21 -10 29 -7 63 23 135 120 168 141 181 120 8 -13 6 -236
-4 -334 -5 -58 1 -77 26 -77 20 0 54 29 262 224 65 61 136 127 158 147 21 19
39 44 39 55 0 11 -16 35 -35 54 -43 41 -43 42 -165 -70 -92 -84 -106 -94 -120
-85 -13 8 -13 141 0 165 5 10 11 73 12 141 3 143 -2 151 -68 99z"/>
<path d="M1677 7182 c-41 -43 -35 -62 46 -138 75 -70 90 -92 79 -111 -17 -26
-96 -83 -116 -83 -12 0 -44 20 -71 43 -85 74 -116 83 -153 44 -28 -29 -27 -55
1 -88 23 -27 187 -175 243 -219 17 -14 63 -53 103 -87 78 -69 105 -76 139 -40
38 40 29 65 -55 149 l-76 77 33 51 c46 72 82 88 119 51 52 -52 125 -101 150
-101 34 0 61 28 61 62 0 30 -39 74 -170 190 -172 151 -269 228 -288 228 -10 0
-30 -13 -45 -28z"/>
<path d="M10986 6879 c-22 -11 -85 -55 -140 -97 -220 -166 -306 -242 -306
-272 0 -34 165 -240 192 -240 12 0 70 47 80 65 5 8 -11 37 -42 75 -28 34 -50
70 -50 80 0 23 42 60 69 60 21 0 58 -32 88 -77 9 -13 22 -23 30 -23 23 0 83
53 83 74 0 11 -17 44 -37 73 l-36 53 23 25 c39 41 71 34 125 -30 26 -30 54
-55 62 -55 21 0 83 50 83 68 0 33 -155 242 -180 242 -3 0 -23 -9 -44 -21z"/>
<path d="M1308 6743 c-25 -28 -181 -248 -205 -291 -20 -34 -15 -59 13 -81 27
-21 61 -27 79 -13 6 4 23 24 38 45 15 20 36 37 46 37 17 0 109 -62 301 -204
45 -34 85 -56 101 -56 33 0 58 28 65 71 6 33 3 36 -68 89 -72 54 -135 99 -234
165 -28 19 -56 45 -63 58 -11 21 -9 29 19 74 35 57 33 74 -16 112 -35 27 -45
26 -76 -6z"/>
<path d="M1255 3056 c-19 -14 -20 -27 -20 -316 0 -256 2 -302 15 -310 28 -18
61 -23 86 -11 l24 11 0 298 c0 223 -3 302 -12 314 -19 24 -70 31 -93 14z"/>
<path d="M1500 3050 c-24 -24 -33 -56 -34 -129 -1 -55 -1 -56 29 -59 41 -4 68
26 95 108 l22 64 -22 18 c-29 24 -65 23 -90 -2z"/>
<path d="M3545 3064 c-118 -27 -161 -49 -214 -110 -115 -131 -112 -302 9 -437
125 -140 340 -142 468 -3 64 69 85 119 90 211 4 73 1 87 -25 145 -17 36 -45
80 -64 99 -62 61 -198 110 -264 95z m86 -149 c54 -20 82 -46 108 -101 40 -83
17 -168 -60 -224 -126 -91 -279 -8 -279 150 0 85 43 149 117 176 49 17 62 17
114 -1z"/>
<path d="M7748 3059 c-17 -9 -18 -35 -18 -313 0 -333 -1 -326 60 -328 63 -2
63 1 64 314 1 256 -1 287 -17 311 -19 29 -56 36 -89 16z"/>
<path d="M9220 3055 c-7 -8 -17 -54 -22 -102 -12 -107 -4 -443 12 -495 10 -35
14 -38 48 -38 60 0 64 7 71 119 4 56 12 106 18 112 5 5 44 9 89 7 l79 -3 2
-50 c7 -149 13 -173 42 -185 21 -8 34 -8 54 1 22 10 27 20 32 73 4 33 5 167 3
297 -3 260 -5 269 -63 269 -49 0 -59 -20 -63 -129 -2 -53 -9 -102 -14 -108 -7
-8 -37 -13 -84 -13 -60 0 -75 3 -82 18 -5 9 -12 64 -16 122 -4 65 -11 107 -19
112 -20 13 -74 9 -87 -7z"/>
<path d="M9807 3055 c-21 -20 -32 -264 -21 -463 l9 -157 28 -13 c33 -16 80 -2
93 26 4 10 9 123 12 252 4 237 -5 346 -31 362 -20 13 -75 9 -90 -7z"/>
<path d="M2854 3037 c-92 -39 -141 -82 -175 -153 -38 -78 -46 -134 -29 -206
16 -67 45 -117 95 -169 48 -50 91 -72 170 -88 50 -10 70 -10 120 3 90 24 96
35 93 180 l-3 121 -49 3 c-55 4 -69 -6 -71 -45 -4 -87 -7 -103 -22 -118 -36
-36 -128 7 -173 81 -26 41 -31 124 -10 164 38 74 83 98 201 109 100 9 109 15
109 73 0 31 -5 39 -32 52 -46 24 -160 20 -224 -7z"/>
<path d="M4035 3048 c-3 -7 -4 -150 -3 -318 l3 -305 30 -5 c17 -4 42 -2 58 3
l27 9 0 139 c0 131 1 139 20 139 11 0 48 -30 87 -72 157 -165 201 -208 215
-208 22 0 25 40 27 344 1 207 -2 272 -11 278 -16 10 -79 10 -94 0 -7 -4 -14
-61 -19 -144 -4 -89 -11 -141 -19 -148 -13 -10 -35 11 -221 211 -80 85 -93 96
-100 77z"/>
<path d="M4659 3043 c-11 -12 -15 -75 -17 -271 -4 -299 -1 -334 34 -352 21
-12 30 -11 61 4 l36 17 -6 116 c-7 121 0 153 32 153 9 0 62 -48 117 -107 181
-196 191 -202 207 -128 5 22 9 154 10 293 l2 254 -24 19 c-25 20 -67 25 -90
10 -11 -7 -16 -46 -22 -153 -4 -78 -8 -144 -8 -145 -1 -2 -7 -3 -15 -3 -8 0
-56 46 -106 103 -197 219 -191 214 -211 190z"/>
<path d="M6120 3045 c-16 -19 -29 -335 -22 -506 l5 -109 36 -7 c46 -10 228
-10 262 -1 21 6 28 16 33 50 9 57 -5 68 -98 75 -68 5 -79 9 -86 28 -5 13 -14
123 -20 246 -8 147 -16 227 -23 231 -21 13 -74 9 -87 -7z"/>
<path d="M6562 3051 c-21 -13 -31 -128 -32 -352 0 -262 1 -266 54 -280 60 -17
253 -5 278 17 21 20 24 76 4 93 -7 6 -47 14 -89 17 -41 4 -80 10 -85 13 -14 9
-24 73 -14 89 5 7 35 16 68 19 32 3 65 10 72 16 6 5 12 29 12 53 0 52 -25 74
-82 74 -50 0 -82 31 -73 68 10 41 19 46 103 52 l77 5 3 63 3 62 -143 0 c-79 0
-149 -4 -156 -9z"/>
<path d="M6968 3048 c-21 -17 -33 -85 -17 -104 7 -8 30 -14 59 -14 26 0 52 -6
58 -12 6 -8 13 -113 17 -246 l8 -234 32 -15 c47 -23 87 -7 98 38 4 19 11 126
14 239 3 113 10 211 15 218 6 6 30 12 54 12 58 0 76 19 72 79 l-3 46 -195 3
c-147 2 -200 -1 -212 -10z"/>
<path d="M8038 3049 c-37 -4 -71 -10 -76 -13 -16 -10 -24 -76 -11 -92 7 -9 30
-14 60 -14 82 0 89 -14 90 -177 1 -76 4 -180 8 -232 6 -93 6 -95 34 -102 17
-5 39 -3 52 3 28 13 32 45 39 306 2 104 8 178 14 184 6 6 39 14 74 17 l63 6 3
38 c4 49 -9 65 -61 71 -74 9 -220 12 -289 5z"/>
<path d="M8836 3040 c-85 -44 -120 -101 -114 -187 6 -69 35 -105 128 -158 86
-49 120 -86 104 -113 -21 -32 -60 -38 -134 -18 -77 20 -104 13 -114 -28 -7
-28 5 -66 26 -83 24 -20 102 -43 148 -43 96 1 199 80 216 168 13 65 -38 144
-122 193 -72 41 -124 86 -124 108 0 31 54 53 114 46 50 -7 55 -5 71 18 25 38
16 79 -20 96 -49 24 -134 25 -179 1z"/>
<path d="M10442 3051 c-10 -6 -15 -44 -18 -132 -6 -153 -9 -169 -33 -169 -16
0 -52 37 -225 234 -64 72 -94 83 -107 36 -9 -31 -11 -517 -3 -558 8 -41 59
-60 101 -40 l28 13 3 138 c4 189 0 190 212 -47 94 -105 113 -119 123 -92 3 7
8 127 12 267 3 140 8 272 10 293 3 22 -1 46 -7 53 -12 15 -76 17 -96 4z"/>
<path d="M10700 3050 c-13 -8 -15 -52 -12 -312 1 -198 6 -304 13 -309 24 -14
224 -19 269 -5 44 13 45 14 48 60 4 55 4 55 -108 64 -82 7 -84 8 -91 37 -17
60 -5 72 72 77 39 3 74 9 79 14 5 5 12 28 16 50 9 60 -19 84 -98 84 -54 0 -59
2 -69 26 -22 60 10 87 110 94 l76 5 3 47 c5 70 -12 78 -168 78 -69 0 -132 -5
-140 -10z"/>
<path d="M1703 3038 c-11 -18 -15 -329 -6 -478 8 -122 9 -125 36 -140 24 -13
30 -13 55 0 27 16 27 16 29 135 3 142 8 165 31 165 10 0 42 -25 72 -55 30 -30
60 -55 65 -55 6 0 35 25 65 55 56 57 83 67 95 38 4 -10 11 -76 14 -147 l6
-130 28 -7 c43 -12 75 8 83 48 10 52 10 344 0 466 -6 76 -12 110 -22 114 -18
7 -75 -41 -162 -140 -41 -45 -83 -85 -94 -90 -17 -6 -40 12 -138 113 -114 116
-140 134 -157 108z"/>
<path d="M5437 2958 c-48 -101 -88 -194 -137 -323 -24 -60 -46 -114 -50 -120
-16 -21 -21 -72 -8 -82 29 -23 49 -20 115 13 64 33 73 35 145 31 52 -2 84 -9
95 -19 32 -29 86 -46 113 -36 50 18 48 26 -53 269 -86 209 -148 333 -169 337
-11 2 -26 -18 -51 -70z"/>
</g>
</svg>
